<svg xmlns="http://www.w3.org/2000/svg" viewBox="0 0 100 100" fill="none">
  <!-- 올케어치과 심볼 v1 — "온전히 감싸는 케어 링" / Deep Navy #062741 + Brass #B08D57 -->
  <!-- 케어 링: 미완성 원호 = 진행형의 케어, 열린 틈은 환자가 들어오는 입구 -->
  <path d="M 78.8 21.2 A 41 41 0 1 0 91 50" stroke="#062741" stroke-width="6.5" stroke-linecap="round"/>
  <!-- 브라스 골드 점: 케어의 시작점 (액센트 5% 이내) -->
  <circle cx="88" cy="14" r="5.5" fill="#B08D57"/>
  <!-- 치아: 부드러운 크라운 + 두 뿌리, 미니멀 실루엣 -->
  <path d="M33 33 C33 23.5 41.5 20.5 50 25.5 C58.5 20.5 67 23.5 67 33 C67 41 63.5 46 61.8 55 C60.6 63 57.5 72 53.8 72 C50.6 72 51.4 60 50 54.5 C48.6 60 49.4 72 46.2 72 C42.5 72 39.4 63 38.2 55 C36.5 46 33 41 33 33 Z" fill="#062741"/>
</svg>
